<?xml version="1.0" encoding="utf-8"?>
<!-- Generator: Adobe Illustrator 22.1.0, SVG Export Plug-In . SVG Version: 6.00 Build 0)  -->
<svg version="1.1" id="Warstwa_1" xmlns="http://www.w3.org/2000/svg" xmlns:xlink="http://www.w3.org/1999/xlink" x="0px" y="0px"
	 viewBox="0 0 40 40" style="enable-background:new 0 0 40 40;" xml:space="preserve">
<style type="text/css">
	.st0{fill:none;}
</style>
<path class="st0" d="M8,8h24v24H8V8z"/>
<path d="M14.4,22.8c-4.4,0-13.3,3.1-13.3,9.1v4.6h26.6v-4.6C27.7,25.8,18.8,22.8,14.4,22.8z M5.5,33.5c1.6-3.2,5.4-6.9,8.8-6.9
	s7.3,3.7,8.8,6.9H5.5z M14.4,19.5c3.7,0,6.6-3,6.6-6.6s-3-6.6-6.6-6.6s-6.6,3-6.6,6.6S10.7,19.5,14.4,19.5z M14.4,10
	c1.6,0,2.8,1.3,2.8,2.8s-1.3,2.8-2.8,2.8s-2.8-1.3-2.8-2.8S12.8,10,14.4,10z M27.7,22.9c2.2,2.2,3.7,5.1,3.7,9v4.6h7.6v-4.6
	C39.1,26.6,32.4,23.6,27.7,22.9z M25.8,19.5c3.7,0,6.6-3,6.6-6.6s-3-6.6-6.6-6.6c-1,0-2,0.2-2.8,0.7c1.2,1.7,1.9,3.8,1.9,6
	s-0.7,4.3-1.9,6C23.8,19.2,24.7,19.5,25.8,19.5z"/>
</svg>
